<?xml version="1.0" standalone="no"?>
<!DOCTYPE svg PUBLIC "-//W3C//DTD SVG 20010904//EN"
 "http://www.w3.org/TR/2001/REC-SVG-20010904/DTD/svg10.dtd">
<svg version="1.0" xmlns="http://www.w3.org/2000/svg"
 width="500.000000pt" height="500.000000pt" viewBox="0 0 500.000000 500.000000"
 preserveAspectRatio="xMidYMid meet">
<metadata>
Created by potrace 1.14, written by Peter Selinger 2001-2017
</metadata>
<g transform="translate(0.000000,500.000000) scale(0.100000,-0.100000)"
fill="#000000" stroke="none">
<path d="M1337 4114 c-1 -1 -29 -5 -62 -8 -76 -8 -113 -13 -145 -21 -24 -6
-68 -14 -100 -19 -8 -1 -25 -8 -37 -14 -13 -7 -23 -10 -23 -6 0 3 -6 2 -12 -3
-7 -6 -21 -9 -30 -8 -10 2 -18 0 -18 -5 0 -4 -12 -11 -27 -15 -15 -3 -53 -18
-83 -32 -30 -14 -57 -25 -60 -25 -3 -1 -22 -12 -42 -24 -21 -13 -40 -24 -42
-24 -8 0 -121 -78 -143 -99 -13 -12 -23 -19 -23 -15 0 3 -27 -20 -60 -52 -34
-33 -65 -60 -70 -62 -6 -2 -10 -8 -10 -13 0 -6 -11 -20 -25 -33 -14 -13 -25
-28 -25 -35 0 -6 -4 -11 -10 -11 -5 0 -10 -7 -10 -15 0 -8 -4 -15 -10 -15 -5
0 -10 -7 -10 -15 0 -8 -4 -15 -10 -15 -5 0 -10 -7 -10 -15 0 -8 -4 -15 -10
-15 -5 0 -9 -3 -8 -7 0 -5 -14 -39 -31 -77 -18 -38 -35 -78 -37 -89 -2 -11 -8
-34 -14 -51 -31 -95 -32 -305 -1 -403 5 -18 7 -33 4 -33 -3 0 0 -7 7 -15 7 -8
9 -15 5 -15 -4 0 -2 -7 5 -15 6 -8 9 -19 5 -25 -3 -5 -2 -10 2 -10 5 0 17 -22
28 -50 11 -27 23 -50 27 -50 4 0 8 -5 8 -11 0 -11 52 -90 84 -128 50 -58 126
-131 136 -131 6 0 8 -4 5 -10 -3 -6 1 -10 10 -10 8 0 18 -7 21 -15 4 -8 12
-15 20 -15 7 0 17 -6 21 -14 7 -12 188 -120 202 -121 3 -1 15 -6 26 -12 18 -9
136 -52 160 -57 6 -2 30 -8 55 -15 56 -16 76 -21 119 -27 19 -2 37 -7 41 -9 4
-3 19 6 34 20 14 13 26 22 26 21 0 -2 18 12 41 33 61 54 148 141 142 141 -3 0
9 14 26 32 17 17 31 35 31 39 0 14 58 37 67 28 6 -6 19 0 34 13 14 13 47 41
73 63 48 40 70 58 114 96 28 24 28 33 -3 49 -14 7 -25 17 -25 22 0 4 -7 8 -15
8 -8 0 -15 3 -15 8 0 4 -20 20 -45 35 -25 16 -45 33 -45 38 0 5 -6 9 -13 9 -7
0 -24 11 -39 25 -15 14 -31 25 -35 25 -4 0 -25 16 -46 35 -21 19 -42 33 -47
30 -4 -3 -10 -1 -12 4 -1 5 -24 25 -51 45 -47 36 -47 36 -67 16 -11 -11 -20
-18 -20 -15 0 2 -16 -11 -35 -31 -19 -19 -35 -32 -35 -29 0 3 -14 -8 -31 -25
-18 -16 -35 -30 -39 -30 -4 0 -12 -11 -18 -25 -6 -14 -8 -24 -4 -23 4 1 26
-10 49 -25 24 -15 45 -27 49 -27 3 0 12 -7 20 -15 9 -8 24 -15 35 -15 10 0 19
-4 19 -9 0 -5 10 -13 21 -16 16 -6 18 -9 8 -15 -7 -5 -17 -6 -21 -4 -4 3 -18
7 -30 10 -13 3 -27 6 -33 8 -5 2 -27 6 -47 10 -21 5 -42 14 -49 22 -6 8 -15
11 -20 8 -5 -3 -9 0 -9 6 0 6 -4 8 -10 5 -5 -3 -10 -1 -10 5 0 6 -4 8 -10 5
-5 -3 -10 -1 -10 4 0 6 -6 11 -13 11 -7 0 -23 9 -35 20 -12 11 -26 20 -32 20
-6 0 -8 5 -5 10 3 6 1 10 -6 10 -22 0 -90 83 -120 148 -19 38 -32 86 -36 123
-5 63 13 189 28 189 5 0 9 7 9 16 0 35 106 159 163 191 12 7 18 12 12 13 -5 0
6 8 25 19 19 10 38 17 43 14 4 -2 7 0 7 6 0 7 78 44 100 46 3 1 14 4 25 8 21
6 52 13 120 24 51 8 200 7 240 -2 17 -4 45 -9 63 -12 18 -3 35 -9 38 -14 3 -5
14 -9 24 -9 11 0 52 -17 91 -37 81 -42 172 -125 212 -194 26 -44 63 -167 66
-218 1 -7 7 -11 15 -8 23 9 48 -30 60 -93 1 -3 4 -9 8 -15 3 -5 22 -64 43
-130 20 -66 46 -149 57 -185 11 -36 22 -72 23 -80 2 -8 4 -15 5 -15 1 0 3 -8
5 -18 2 -10 7 -26 11 -35 4 -9 8 -19 9 -22 8 -27 29 -97 31 -105 1 -5 9 -31
18 -56 8 -25 17 -54 19 -65 1 -10 5 -23 9 -29 4 -8 37 -119 52 -180 2 -5 6
-17 9 -25 14 -36 41 -136 40 -147 0 -7 3 -13 9 -13 5 0 7 -4 3 -9 -3 -5 0 -13
6 -16 5 -4 8 -13 5 -21 -3 -7 -1 -16 3 -19 5 -2 12 -22 16 -42 4 -21 10 -42
13 -48 4 -5 7 -14 8 -20 2 -14 44 -157 51 -175 3 -8 8 -23 9 -32 2 -10 5 -23
6 -30 2 -7 6 -16 10 -19 5 -3 9 -17 10 -32 1 -15 7 -27 12 -27 5 0 7 -3 4 -6
-4 -3 -2 -18 2 -32 5 -15 20 -67 35 -117 14 -49 28 -96 30 -103 3 -7 4 -13 4
-15 0 -1 5 -15 11 -32 7 -16 14 -39 16 -50 6 -25 8 -30 22 -80 7 -22 17 -47
22 -55 9 -13 12 -12 25 5 9 11 21 27 28 35 7 8 23 31 37 50 13 19 27 37 30 40
3 3 23 27 45 54 40 51 48 93 23 123 -6 7 -8 16 -5 20 4 3 2 12 -4 20 -6 7 -9
13 -5 13 4 0 0 14 -9 30 -9 17 -13 30 -10 30 3 0 1 8 -4 18 -6 11 -12 30 -15
43 -3 13 -14 56 -26 94 -12 39 -23 77 -25 85 -2 8 -4 16 -5 18 -3 2 -4 8 -14
47 -4 17 -12 38 -17 48 -5 10 -7 22 -4 27 4 6 1 10 -6 10 -7 0 -10 3 -6 6 3 3
-1 23 -8 45 -8 22 -15 41 -15 44 -1 6 -3 13 -26 90 -10 33 -19 65 -20 70 -2 6
-5 19 -8 30 -2 11 -9 32 -15 48 -6 15 -8 27 -5 27 4 0 2 6 -4 13 -8 10 -24 61
-28 92 0 6 -4 17 -7 25 -7 17 -28 83 -47 150 -7 25 -19 65 -27 90 -8 25 -16
52 -18 60 -5 21 -46 162 -53 180 -3 8 -13 42 -23 75 -9 33 -31 107 -49 165
-17 58 -32 111 -32 118 -1 6 -5 12 -10 12 -5 0 -7 4 -4 8 3 5 0 24 -6 43 -9
31 -13 35 -39 31 -21 -3 -29 0 -30 12 -13 161 -76 302 -188 416 -42 42 -102
93 -133 113 -55 36 -228 121 -228 112 0 -3 -11 0 -26 5 -25 10 -79 22 -101 23
-7 0 -13 3 -13 6 0 8 -78 14 -195 14 -113 0 -205 -6 -205 -13 0 -3 -15 -6 -34
-7 -18 -1 -56 -9 -82 -19 -27 -9 -57 -16 -66 -16 -10 0 -18 -4 -18 -9 0 -6 -4
-8 -8 -5 -12 7 -198 -88 -222 -114 -3 -3 -22 -16 -42 -30 -20 -13 -34 -28 -32
-32 3 -4 -1 -8 -8 -8 -7 0 -29 -19 -48 -42 -19 -23 -42 -49 -50 -57 -26 -28
-86 -130 -95 -163 -2 -5 -3 -9 -5 -10 -1 -2 -3 -10 -5 -18 -2 -8 -10 -40 -18
-70 -26 -99 -9 -272 34 -352 5 -10 9 -25 9 -33 0 -8 5 -15 10 -15 6 0 10 -5
10 -11 0 -34 162 -214 221 -244 16 -9 29 -20 29 -25 0 -6 3 -9 8 -8 13 3 62
-25 62 -35 0 -6 3 -7 6 -4 4 3 16 1 28 -5 11 -7 23 -13 26 -13 3 -1 27 -11 53
-23 27 -12 55 -22 63 -22 9 0 12 -4 9 -10 -3 -6 1 -7 9 -4 9 3 16 1 16 -5 0
-6 -5 -11 -11 -11 -5 0 -8 -4 -4 -9 15 -25 -78 -9 -160 28 -11 5 -35 14 -52
21 -18 7 -33 16 -33 21 0 5 -4 8 -9 7 -13 -4 -171 101 -171 113 0 5 -4 9 -9 9
-19 0 -141 138 -141 159 0 6 -4 11 -9 11 -9 0 -62 113 -82 175 -7 22 -13 58
-15 80 -1 22 -3 42 -4 45 -1 3 -2 8 -2 11 1 3 3 37 6 75 7 98 58 252 91 276 5
4 6 8 2 8 -5 0 12 26 36 58 48 61 127 138 192 186 22 17 43 35 47 40 4 6 8 7
8 3 0 -4 17 4 37 18 21 14 42 25 48 25 6 0 16 5 23 12 6 6 22 13 34 15 12 2
25 7 28 11 5 8 94 35 198 62 78 20 173 29 297 29 50 0 100 0 113 0 13 1 32 -4
42 -9 13 -7 21 -7 25 0 4 7 11 8 18 1 7 -5 26 -11 42 -14 41 -7 85 -17 115
-27 52 -17 60 -19 63 -18 1 1 16 -5 32 -14 17 -9 53 -26 80 -38 28 -12 58 -29
68 -38 9 -8 17 -12 17 -9 0 4 8 0 18 -8 9 -8 34 -28 55 -44 51 -40 117 -100
117 -106 0 -3 13 -19 29 -35 15 -17 39 -51 52 -78 13 -26 27 -49 30 -52 17
-13 56 -175 58 -244 1 -17 38 28 133 162 22 31 48 65 66 88 22 25 32 53 22 59
-6 4 -8 11 -5 16 4 5 1 9 -4 9 -6 0 -11 3 -10 8 2 14 -13 52 -21 52 -4 0 -13
14 -20 30 -12 29 -72 97 -116 131 -23 17 -137 98 -162 114 -9 6 -26 20 -39 33
-13 12 -30 22 -38 22 -8 0 -15 4 -15 8 0 5 -26 26 -57 48 -32 21 -67 47 -77
56 -21 19 -97 57 -124 61 -9 1 -21 5 -27 8 -13 8 -68 23 -76 21 -4 -1 -22 3
-40 9 -19 5 -47 12 -64 14 -16 3 -56 10 -88 16 -50 9 -313 20 -320 13z"/>
<path d="M3405 3578 c-11 -11 -20 -23 -20 -27 0 -4 -7 -15 -15 -24 -30 -33
-45 -52 -45 -57 0 -5 -85 -120 -95 -130 -4 -3 -16 -22 -29 -42 -12 -21 -28
-38 -33 -38 -6 0 -9 -3 -5 -6 3 -4 1 -12 -6 -19 -7 -7 -19 -23 -27 -35 -8 -12
-21 -28 -27 -36 -7 -7 -13 -17 -13 -23 0 -5 -8 -15 -17 -20 -10 -6 -13 -11 -8
-11 6 0 6 -3 0 -8 -18 -13 -75 -89 -75 -101 0 -6 -4 -11 -8 -11 -5 0 -23 -21
-42 -46 l-33 -46 28 -26 28 -26 29 35 c16 19 44 57 63 84 74 108 128 180 136
183 5 2 9 8 9 13 0 6 5 15 10 22 13 16 60 77 85 113 11 16 41 57 67 91 26 35
45 63 43 63 -3 0 3 8 13 18 30 33 52 62 46 62 -4 0 -2 6 4 13 8 10 7 17 -6 28
-31 26 -36 27 -57 7z"/>
<path d="M3518 3505 c-7 -9 -18 -21 -23 -28 -6 -7 -28 -37 -49 -67 -22 -30
-43 -56 -48 -58 -4 -2 -8 -10 -8 -18 0 -8 -5 -14 -12 -14 -6 0 -8 -3 -5 -7 4
-3 -2 -13 -13 -20 -11 -8 -18 -18 -16 -22 3 -4 -4 -14 -15 -21 -10 -8 -19 -18
-19 -23 0 -7 -52 -79 -70 -97 -3 -3 -21 -27 -39 -55 -19 -27 -38 -52 -41 -55
-3 -3 -16 -21 -28 -40 -11 -19 -33 -47 -47 -62 -14 -15 -25 -30 -24 -34 0 -3
-9 -17 -21 -31 -12 -14 -19 -31 -16 -39 8 -20 56 -41 64 -27 4 6 15 21 25 34
50 67 213 293 222 307 6 10 22 32 38 50 15 18 27 36 27 41 0 4 10 19 23 33 12
14 29 35 37 48 8 12 26 37 40 55 14 18 32 43 40 55 8 12 23 31 33 42 9 12 17
22 17 24 0 1 -13 12 -29 24 -27 18 -31 19 -43 5z"/>
<path d="M3698 3362 c-9 -15 -26 -38 -37 -52 -26 -32 -29 -36 -71 -95 -19 -28
-38 -54 -43 -60 -4 -5 -31 -41 -58 -80 -54 -75 -152 -209 -231 -315 -43 -58
-64 -111 -38 -95 6 3 10 2 10 -3 0 -24 35 -22 57 4 13 15 23 30 23 33 0 3 16
24 35 46 19 22 35 44 35 48 0 5 6 14 13 22 6 7 21 25 32 41 11 15 26 33 33 41
7 7 10 13 6 13 -4 0 2 10 13 23 11 12 50 65 88 117 38 52 71 97 75 100 4 3 15
20 25 38 11 17 23 32 26 32 8 0 17 -22 24 -57 2 -10 10 -38 18 -63 13 -38 23
-72 43 -145 2 -5 17 -57 35 -115 17 -58 32 -112 34 -120 1 -8 5 -22 8 -30 17
-42 67 -219 71 -250 1 -9 4 -20 8 -25 3 -6 8 -22 12 -37 8 -36 16 -35 43 5 12
17 34 44 48 60 14 15 23 27 20 27 -4 0 119 171 148 205 4 6 43 59 86 120 74
104 87 135 55 135 -8 0 -14 4 -14 9 0 25 -35 -2 -75 -59 -25 -35 -51 -67 -57
-72 -7 -4 -8 -8 -3 -8 7 0 7 -3 0 -8 -6 -4 -39 -47 -75 -97 -35 -49 -70 -96
-77 -103 -7 -7 -13 -17 -13 -21 0 -14 -41 -51 -51 -46 -18 12 -9 62 16 89 14
15 25 29 25 32 0 6 40 63 57 82 7 7 20 26 30 42 9 17 21 30 25 30 4 0 8 5 8
11 0 6 6 17 13 24 6 8 23 30 37 50 14 19 35 48 47 63 29 34 29 36 -3 61 l-27
21 -23 -26 c-13 -14 -24 -29 -24 -35 0 -5 -4 -9 -9 -9 -5 0 -12 -8 -15 -18 -4
-10 -14 -27 -24 -38 -10 -10 -32 -40 -50 -66 -18 -25 -38 -52 -45 -60 -7 -7
-26 -34 -42 -60 -25 -41 -30 -44 -41 -30 -7 9 -10 20 -8 24 3 5 0 8 -5 8 -6 0
-10 3 -9 8 3 13 -25 123 -34 128 -4 3 -8 13 -8 23 0 10 -9 45 -20 78 -11 34
-21 69 -23 79 -2 11 -7 26 -10 34 -5 13 -46 148 -64 215 -3 11 -11 26 -17 34
-9 12 -8 13 3 6 11 -6 12 -5 5 6 -4 8 -9 20 -11 28 -4 28 -19 30 -35 3z"/>
<path d="M1500 3123 c-19 -15 -41 -35 -48 -45 -7 -10 -18 -18 -23 -18 -5 0
-20 -10 -33 -22 -13 -13 -33 -31 -45 -40 -24 -20 -20 -40 15 -58 13 -7 24 -17
24 -22 0 -4 6 -8 13 -8 6 0 26 -11 42 -24 68 -55 126 -96 135 -96 6 0 10 -3
10 -7 0 -5 17 -19 38 -33 20 -14 39 -27 42 -30 3 -3 21 -17 40 -30 19 -14 44
-32 54 -42 11 -10 25 -18 32 -18 26 0 25 -34 -3 -58 -53 -45 -126 -107 -146
-124 -11 -10 -24 -18 -29 -18 -5 0 -6 -4 -3 -10 3 -5 2 -10 -4 -10 -5 0 -16
-6 -23 -13 -7 -7 -33 -28 -58 -47 -24 -19 -52 -42 -61 -50 -60 -55 -78 -70
-84 -70 -3 0 -16 -10 -29 -22 -12 -13 -39 -36 -60 -53 -74 -58 -88 -73 -78
-79 11 -7 202 0 247 9 38 7 85 21 108 30 13 5 17 2 17 -14 0 -30 17 -26 64 13
76 62 122 111 149 156 15 25 27 41 27 37 0 -5 21 22 46 59 25 37 50 72 55 78
6 6 37 49 71 96 34 47 65 87 70 88 4 2 8 8 8 14 0 5 11 24 26 43 l25 33 -38
29 c-21 15 -39 31 -41 36 -2 4 -10 7 -17 7 -8 0 -18 6 -22 13 -4 7 -21 21 -38
31 -16 11 -34 23 -40 28 -31 26 -145 108 -149 108 -6 0 -37 24 -61 48 -8 6
-18 12 -23 12 -6 0 -12 4 -14 8 -1 5 -25 23 -53 42 -27 19 -59 42 -69 52 -25
23 -24 23 -66 -9z"/>
<path d="M4638 3112 c-28 -2 -43 -11 -65 -39 -15 -20 -33 -41 -38 -47 -6 -6
-26 -31 -45 -56 -54 -70 -63 -81 -87 -106 -13 -13 -23 -26 -23 -30 0 -4 -10
-15 -22 -25 -11 -11 -17 -19 -12 -19 5 0 4 -4 -1 -8 -9 -6 -58 -65 -100 -120
-5 -7 -19 -23 -31 -35 -36 -39 -104 -125 -104 -132 0 -4 -11 -19 -25 -33 -46
-50 -75 -87 -75 -95 0 -5 -5 -5 -12 -1 -8 5 -9 2 -5 -9 4 -10 1 -17 -6 -17 -7
-1 -30 -26 -51 -56 -39 -53 -59 -67 -36 -23 10 17 10 30 0 58 -6 20 -12 43
-14 51 -1 8 -7 25 -14 36 -6 12 -9 24 -6 27 3 3 1 13 -4 24 -9 16 -39 112 -46
145 -2 7 -6 20 -9 28 -5 13 -16 51 -34 118 -2 6 -4 19 -6 27 -2 8 -6 18 -10
21 -4 4 -7 13 -7 20 0 7 -5 25 -12 41 -6 15 -11 31 -10 35 1 4 -6 26 -14 50
-9 24 -18 52 -20 63 -7 41 -10 50 -20 68 -10 17 -12 16 -29 -10 -10 -15 -24
-34 -31 -40 -7 -7 -27 -35 -45 -63 -18 -27 -36 -50 -41 -50 -4 0 -8 -5 -8 -11
0 -11 -60 -92 -72 -97 -5 -2 -8 -8 -8 -14 0 -8 -18 -35 -73 -103 -4 -5 -19
-26 -32 -45 l-25 -34 26 -23 c33 -28 36 -25 101 66 26 36 53 72 60 79 7 7 13
16 13 20 0 4 14 23 30 42 16 19 30 38 30 41 0 3 8 15 18 27 9 11 24 30 32 41
8 12 17 21 21 21 7 0 75 -231 71 -242 -1 -5 3 -8 9 -8 5 0 8 -3 5 -8 -2 -4 4
-31 14 -60 10 -28 17 -52 15 -52 -3 0 0 -12 6 -27 6 -16 12 -35 14 -43 2 -8 8
-29 14 -47 5 -17 7 -34 3 -37 -3 -3 0 -6 6 -6 7 0 12 -7 12 -16 0 -37 44 -164
57 -164 8 0 3 -11 -14 -30 -32 -37 -42 -38 -38 -4 1 14 -4 31 -11 39 -8 7 -14
18 -14 24 0 6 -5 11 -11 11 -5 0 -8 4 -4 9 3 5 -1 15 -8 23 -25 25 -28 48 -7
48 24 0 24 3 5 41 -9 16 -13 34 -10 39 3 5 1 11 -5 15 -6 4 -8 11 -5 16 4 5 2
9 -3 9 -5 0 -12 12 -15 28 -7 34 -15 67 -17 67 -1 0 -3 11 -6 24 -2 14 -9 30
-14 36 -5 7 -7 15 -4 18 3 3 2 12 -2 19 -5 7 -9 18 -11 23 -1 6 -6 25 -12 43
-5 17 -7 32 -4 32 3 0 0 6 -6 13 -6 8 -8 17 -5 20 3 3 0 15 -8 26 -14 20 -15
20 -40 -12 -15 -17 -36 -43 -48 -57 -12 -14 -31 -38 -43 -53 -12 -16 -26 -34
-32 -40 -5 -7 -27 -33 -48 -59 -21 -26 -43 -53 -50 -60 -7 -7 -25 -31 -42 -53
-28 -38 -48 -64 -70 -89 -5 -6 -19 -22 -30 -35 l-19 -22 28 7 c21 5 27 4 22
-5 -4 -6 -11 -11 -15 -11 -18 0 -132 -120 -142 -149 -14 -41 -24 -39 -49 9
-11 22 -16 40 -10 40 14 0 13 22 -6 77 -9 26 -18 55 -19 63 -2 8 -4 15 -5 15
-1 0 -3 7 -5 16 -9 47 -52 168 -67 191 -10 14 -18 31 -18 37 0 6 -4 11 -10 11
-5 0 -10 7 -10 15 0 8 5 15 11 15 12 0 11 3 -33 142 -16 54 -35 96 -41 95 -7
-1 -14 22 -18 58 -4 33 -14 84 -23 113 l-17 52 -141 0 -140 0 5 -27 c12 -65
19 -88 29 -100 6 -7 8 -13 5 -13 -5 0 42 -161 63 -215 6 -16 11 -32 11 -35 -1
-6 28 -107 39 -135 4 -11 13 -40 20 -65 7 -25 17 -54 22 -65 5 -12 10 -27 12
-35 1 -8 13 -49 26 -90 12 -41 23 -81 23 -87 0 -7 5 -13 10 -13 5 0 7 -7 3
-15 -3 -8 -1 -15 5 -15 6 0 7 -5 4 -10 -4 -6 -2 -16 3 -23 6 -7 11 -15 11 -19
1 -4 3 -13 5 -20 9 -30 48 -164 51 -173 1 -5 5 -19 9 -30 5 -11 12 -32 17 -46
6 -14 11 -35 12 -47 1 -12 5 -22 10 -22 4 0 7 -6 6 -12 -1 -7 0 -20 4 -28 19
-52 34 -109 29 -114 -3 -3 0 -6 6 -6 7 0 11 -3 10 -7 -1 -7 15 -76 27 -111 3
-7 5 -14 5 -17 0 -3 6 -21 14 -40 9 -20 15 -36 15 -38 -1 -1 5 -22 12 -47 7
-25 14 -49 15 -55 1 -9 6 -24 23 -69 8 -21 17 -15 61 44 14 19 32 41 40 50 9
9 29 33 45 55 17 22 38 49 47 60 10 11 24 29 33 40 14 19 16 19 25 3 6 -10 11
-20 11 -23 0 -2 6 -23 14 -45 8 -22 14 -42 15 -45 0 -3 0 -6 1 -7 3 -13 11
-46 13 -60 1 -10 5 -21 9 -24 4 -4 7 -18 7 -30 0 -45 24 -36 71 26 15 19 36
46 48 60 24 30 21 25 96 120 32 41 66 80 75 87 8 7 11 13 7 13 -4 0 6 13 22
29 16 16 27 32 24 35 -4 3 -1 6 5 6 6 0 14 9 17 20 4 11 10 18 15 15 4 -3 10
1 13 8 4 12 150 198 181 234 6 6 20 23 31 38 11 14 27 33 36 43 8 9 33 39 55
67 21 27 44 55 49 61 13 15 57 69 120 150 17 21 42 51 57 66 15 15 25 28 21
28 -3 0 4 9 17 20 13 11 19 20 15 20 -5 0 -2 6 6 13 9 6 33 35 54 62 22 28 44
55 50 60 6 6 24 28 40 50 17 21 37 47 45 55 29 31 60 70 60 75 0 5 27 38 78
94 17 20 35 44 38 54 3 9 10 15 15 12 5 -4 9 1 9 10 0 8 6 18 14 21 8 3 17 17
20 30 4 14 11 22 16 19 6 -3 10 -2 10 3 0 5 11 22 24 37 31 36 51 73 44 81 -7
6 -191 11 -250 6z m-1109 -917 c12 -38 23 -77 25 -85 1 -8 7 -25 14 -36 6 -12
9 -24 6 -27 -3 -3 2 -19 10 -36 9 -17 16 -32 15 -33 -1 -2 4 -22 10 -45 11
-39 10 -46 -11 -73 -12 -16 -25 -30 -29 -30 -4 0 -9 -9 -12 -21 -5 -20 -31
-23 -33 -3 0 5 -4 17 -8 26 -4 9 -9 25 -11 35 -2 10 -4 18 -5 18 -1 0 -3 7 -5
15 -1 8 -11 42 -21 75 -10 33 -19 67 -19 75 0 8 -8 15 -18 15 -9 0 -17 -4 -16
-8 0 -5 -8 -16 -18 -25 -15 -14 -66 -76 -105 -127 -5 -5 -24 -28 -43 -50 -19
-22 -35 -43 -35 -47 0 -5 -6 -8 -13 -8 -19 0 -40 72 -24 82 7 4 9 8 5 8 -8 0
18 34 55 72 9 10 17 22 17 28 0 5 6 13 13 17 7 4 32 33 57 63 25 30 47 57 50
60 3 3 23 29 45 58 21 28 42 52 46 52 4 0 11 9 14 21 9 28 17 16 44 -66z"/>
<path d="M4854 2925 c-17 -19 -29 -36 -27 -38 2 -2 -17 -25 -41 -51 -25 -25
-43 -46 -40 -46 6 0 -88 -114 -97 -118 -5 -2 -9 -10 -9 -17 0 -7 -3 -15 -8
-17 -4 -1 -32 -34 -62 -73 -30 -38 -60 -74 -67 -78 -8 -5 -11 -12 -8 -18 4 -5
2 -9 -3 -9 -5 0 -29 -26 -53 -57 -24 -32 -48 -63 -54 -69 -14 -16 -15 -18
-162 -204 -20 -25 -123 -154 -138 -173 -8 -9 -15 -21 -15 -25 0 -4 -9 -13 -20
-20 -11 -7 -20 -16 -20 -22 0 -5 -12 -22 -27 -38 -16 -16 -35 -39 -43 -51 -8
-13 -25 -35 -38 -49 -13 -15 -37 -46 -54 -69 -17 -24 -35 -43 -40 -43 -4 0 -8
-6 -8 -14 0 -8 -7 -17 -16 -20 -9 -4 -14 -9 -11 -12 2 -3 -5 -15 -17 -28 -24
-25 -49 -56 -87 -106 -15 -19 -36 -46 -48 -60 -11 -14 -24 -30 -28 -35 -21
-27 -88 -111 -93 -115 -12 -12 -68 -87 -78 -106 -6 -12 -8 -25 -3 -30 10 -12
32 -83 34 -112 1 -12 4 -22 8 -22 4 0 10 -17 13 -38 15 -84 25 -91 56 -39 11
17 20 28 20 23 0 -5 12 9 26 30 15 21 29 41 33 44 4 3 35 41 69 85 35 44 68
87 75 95 7 8 28 35 47 60 19 25 39 50 45 56 17 20 116 144 152 192 10 13 32
39 50 57 17 18 29 36 26 39 -3 3 2 8 11 12 9 3 16 10 16 15 0 5 9 19 19 31 49
57 58 67 81 98 14 19 32 40 41 49 9 9 20 23 25 32 8 15 49 66 98 122 10 12 32
41 49 65 17 23 34 42 39 42 4 0 8 5 8 11 0 6 6 16 13 23 6 7 26 30 42 52 17
21 44 54 60 74 17 21 39 48 50 62 52 65 92 113 108 130 9 10 17 20 17 23 0 5
27 39 51 64 8 9 28 33 44 54 28 37 28 38 29 200 1 90 -1 175 -4 190 l-5 27
-31 -35z"/>
<path d="M2211 2271 c-7 -5 -11 -14 -7 -20 4 -6 2 -9 -7 -5 -8 3 -19 -2 -26
-10 -10 -12 -7 -28 18 -83 40 -93 41 -98 11 -97 -27 2 -128 11 -197 19 -46 5
-47 3 -18 -60 10 -22 19 -45 20 -50 2 -6 13 -33 25 -60 13 -28 31 -70 42 -95
44 -105 40 -99 65 -87 12 5 20 14 17 18 -3 5 2 9 10 9 28 0 34 30 14 71 -47
98 -55 132 -29 125 9 -3 43 -7 76 -11 86 -8 139 -16 144 -21 2 -2 10 1 17 7
11 9 10 16 -7 40 -11 16 -18 29 -15 29 9 0 -119 283 -129 287 -6 1 -16 -1 -24
-6z m17 -76 c-3 -3 -9 2 -12 12 -6 14 -5 15 5 6 7 -7 10 -15 7 -18z m-148
-186 c12 -8 11 -9 -5 -7 -12 2 -19 -2 -17 -10 1 -8 -2 -11 -8 -7 -6 3 -8 10
-5 15 3 4 -1 11 -7 13 -7 3 -4 6 7 6 11 0 27 -4 35 -10z m77 -2 c6 2 14 0 17
-5 3 -5 -5 -7 -17 -6 -12 1 -30 3 -39 3 -10 1 -18 5 -18 11 0 6 9 6 23 1 12
-4 27 -6 34 -4z m63 -13 c0 -2 -7 -4 -15 -4 -8 0 -15 4 -15 10 0 5 7 7 15 4 8
-4 15 -8 15 -10z m64 -5 c3 -3 -8 -5 -23 -4 -16 0 -27 3 -25 7 5 8 40 6 48 -3z
m-210 -35 c3 -8 2 -12 -4 -9 -6 3 -10 10 -10 16 0 14 7 11 14 -7z"/>
<path d="M732 1942 c-49 -54 -109 -116 -131 -140 -42 -44 -45 -62 -11 -62 10
0 20 -7 24 -15 10 -27 35 -16 88 41 29 30 88 92 132 137 l78 81 -22 18 c-12
10 -26 15 -31 12 -5 -3 -9 -1 -9 4 0 34 -36 10 -118 -76z m78 4 c0 -2 -8 -10
-17 -17 -16 -13 -17 -12 -4 4 13 16 21 21 21 13z m-40 -46 c0 -5 -5 -10 -11
-10 -5 0 -7 5 -4 10 3 6 8 10 11 10 2 0 4 -4 4 -10z"/>
<path d="M1790 1981 c-17 -5 -24 -13 -22 -27 3 -18 3 -18 -11 1 -14 19 -16 19
-34 2 -11 -9 -24 -17 -30 -17 -6 0 -19 -12 -29 -26 -10 -14 -27 -35 -37 -46
-29 -36 -48 -133 -35 -188 6 -27 41 -79 50 -74 4 3 8 1 8 -4 0 -23 105 -44
124 -24 8 7 13 8 41 11 23 2 83 60 110 105 30 51 44 112 34 148 -4 17 -3 29 4
32 9 3 8 5 0 5 -7 1 -13 8 -13 16 0 8 -4 15 -10 15 -5 0 -10 5 -10 11 0 33
-94 73 -140 60z m75 -71 c4 -6 12 -7 18 -4 7 4 9 3 4 -1 -4 -5 1 -18 10 -29
10 -12 0 -5 -22 14 -22 19 -44 39 -50 44 -5 5 0 3 12 -3 12 -6 25 -16 28 -21z
m-73 13 c-17 -3 -22 -10 -20 -26 2 -12 10 -23 18 -23 8 -1 21 -2 28 -3 18 -1
51 -61 45 -80 -13 -41 -39 -81 -60 -92 -12 -7 -20 -15 -18 -20 10 -16 -63 8
-82 27 -7 7 -13 31 -13 53 0 34 6 47 38 79 25 25 36 44 34 60 -2 13 -8 20 -14
16 -7 -4 -8 -2 -4 4 4 7 22 11 39 11 25 -1 27 -3 9 -6z m-145 -245 c-3 -8 -6
-5 -6 6 -1 11 2 17 5 13 3 -3 4 -12 1 -19z m140 -50 c2 -17 0 -19 -7 -8 -5 8
-6 18 -4 22 8 12 10 10 11 -14z"/>
<path d="M903 1903 c-26 -43 -51 -82 -55 -88 -31 -39 -68 -103 -68 -118 0 -10
-4 -16 -9 -13 -5 3 -12 -1 -15 -10 -9 -22 -9 -22 24 -39 16 -9 30 -13 30 -10
0 3 17 -2 38 -11 20 -9 44 -17 52 -19 8 -2 16 -4 18 -5 1 -2 7 -4 12 -5 6 -1
11 -3 13 -5 6 -4 38 -8 33 -3 -3 3 0 11 7 19 43 49 46 69 10 80 -16 4 -33 8
-39 9 -6 0 -20 7 -32 15 l-22 15 30 45 c16 25 34 50 40 57 5 7 10 17 10 23 0
5 5 10 10 10 6 0 10 5 10 11 0 5 11 26 25 46 22 33 23 37 7 49 -9 6 -22 10
-28 7 -7 -2 -15 0 -19 6 -15 25 -36 7 -82 -66z m58 -10 c-17 -21 -31 -43 -31
-50 0 -7 -5 -13 -11 -13 -16 0 48 99 64 100 5 0 -5 -17 -22 -37z m-65 -101
c-17 -16 -18 -16 -5 5 7 12 15 20 18 17 3 -2 -3 -12 -13 -22z"/>
<path d="M1216 1893 c-10 -24 -7 -35 7 -27 6 4 2 -3 -10 -15 -26 -25 -30 -46
-8 -37 8 3 15 2 15 -2 0 -5 18 -7 40 -5 45 3 48 -5 29 -67 -5 -19 -12 -42 -14
-50 -2 -8 -13 -44 -24 -80 -12 -36 -21 -70 -21 -76 0 -15 86 -12 102 4 7 7 13
16 14 20 3 36 17 92 24 92 4 0 7 6 7 13 -1 6 7 39 17 73 l18 61 61 -1 c58 -1
62 0 62 22 0 13 5 26 10 30 6 4 10 16 10 27 0 15 -7 19 -35 20 -20 1 -41 5
-48 9 -7 4 -12 2 -12 -4 0 -6 -5 -8 -10 -5 -6 4 -59 8 -119 10 -91 3 -110 1
-115 -12z"/>
</g>
</svg>
