<?xml version="1.0" standalone="no"?>
<!DOCTYPE svg PUBLIC "-//W3C//DTD SVG 20010904//EN"
 "http://www.w3.org/TR/2001/REC-SVG-20010904/DTD/svg10.dtd">
<svg version="1.0" xmlns="http://www.w3.org/2000/svg"
 width="276.000000pt" height="276.000000pt" viewBox="0 0 276.000000 276.000000"
 preserveAspectRatio="xMidYMid meet">
<metadata>
Created by potrace 1.14, written by Peter Selinger 2001-2017
</metadata>
<g transform="translate(0.000000,276.000000) scale(0.100000,-0.100000)"
fill="#000000" stroke="none">
<path d="M825 2162 c-2 -2 -20 -6 -40 -8 -90 -8 -227 -62 -308 -120 -94 -68
-155 -150 -187 -253 -52 -165 6 -336 153 -453 46 -36 155 -95 189 -102 7 -2
20 -5 28 -8 55 -20 89 -25 99 -15 6 6 11 7 11 2 0 -4 32 25 71 65 39 41 78 75
85 76 14 2 92 67 106 87 3 6 -8 22 -25 36 -18 14 -33 29 -35 34 -2 4 -8 7 -13
7 -5 0 -36 20 -70 45 -67 49 -68 49 -128 -4 -38 -35 -34 -43 35 -79 30 -16 33
-21 14 -17 -14 2 -25 4 -25 5 0 1 -11 4 -25 6 -13 2 -28 10 -32 17 -4 6 -8 8
-8 4 0 -5 -20 6 -44 23 -76 55 -109 154 -76 227 22 47 68 103 86 103 7 0 14 5
16 11 7 20 137 56 192 53 52 -3 99 -10 104 -14 1 -1 5 -3 10 -4 22 -5 58 -20
62 -25 3 -3 22 -19 43 -34 20 -15 37 -34 37 -41 0 -8 6 -19 14 -25 7 -6 16
-33 20 -59 3 -26 27 -112 52 -192 38 -120 76 -243 85 -278 3 -12 7 -26 20 -67
7 -22 14 -42 14 -45 4 -16 48 -159 56 -180 5 -14 11 -34 13 -45 2 -11 13 -49
24 -85 11 -36 28 -91 37 -122 9 -32 20 -60 24 -63 4 -2 28 23 54 57 34 44 44
65 38 77 -5 9 -18 52 -29 96 -19 74 -56 198 -133 447 -16 53 -32 105 -34 115
-2 10 -19 70 -38 133 -20 63 -43 146 -51 184 -9 38 -25 84 -36 101 -40 65
-117 122 -215 160 -65 26 -164 34 -255 21 -19 -2 -35 -5 -35 -6 0 -2 -9 -4
-21 -5 -42 -4 -156 -69 -203 -116 -69 -68 -96 -127 -95 -214 0 -76 4 -96 29
-145 16 -31 66 -86 111 -120 23 -18 109 -60 124 -60 5 0 10 -4 10 -10 0 -5 -5
-10 -11 -10 -23 0 -89 23 -89 32 0 4 -3 7 -7 6 -38 -8 -147 96 -187 179 -71
143 -14 300 149 413 22 15 45 29 50 30 14 4 57 20 75 29 8 5 25 7 38 6 12 -1
22 1 22 5 0 12 180 16 245 5 90 -16 207 -78 267 -142 34 -36 68 -103 75 -145
2 -18 8 -36 12 -41 8 -8 101 114 101 134 0 37 -55 102 -125 150 -19 13 -35 27
-35 32 0 4 -6 7 -12 7 -7 0 -25 10 -40 23 -61 51 -68 57 -68 52 0 -3 -10 0
-22 7 -26 14 -24 13 -105 31 -34 8 -65 12 -68 9 -3 -3 -5 -1 -5 4 0 8 -157 14
-165 6z"/>
<path d="M1800 1900 c0 -6 -5 -16 -11 -23 -9 -11 -92 -123 -137 -186 -9 -14
-31 -44 -49 -67 -26 -34 -29 -43 -16 -48 22 -9 33 -7 33 4 0 5 6 18 14 27 43
52 86 114 86 123 0 6 5 10 11 10 5 0 7 5 4 10 -3 6 -1 10 4 10 6 0 23 19 38
43 16 23 36 51 46 62 9 10 16 24 14 30 -5 14 -37 19 -37 5z"/>
<path d="M1842 1842 c-23 -24 -42 -50 -42 -57 0 -7 -7 -16 -16 -19 -8 -3 -12
-10 -9 -16 3 -5 2 -10 -2 -10 -5 0 -31 -32 -58 -71 -28 -38 -58 -80 -67 -91
-10 -12 -18 -27 -18 -35 0 -23 27 -14 46 15 9 15 25 32 33 39 9 7 12 13 6 13
-6 0 -6 3 0 8 26 18 176 236 173 250 -3 13 -14 7 -46 -26z"/>
<path d="M1860 1680 c-52 -72 -105 -143 -117 -158 -24 -29 -29 -47 -14 -56 9
-6 36 22 73 75 10 13 40 55 68 92 27 37 50 72 50 76 0 5 7 12 16 15 23 9 27 8
21 -8 -3 -8 -2 -16 3 -18 6 -2 11 -16 13 -33 2 -16 6 -37 9 -45 11 -27 49
-155 53 -175 2 -11 4 -22 6 -25 1 -3 3 -9 4 -15 1 -5 5 -19 9 -30 5 -11 10
-26 12 -32 8 -28 28 -7 99 105 6 8 19 26 30 40 11 13 19 25 18 28 -1 2 9 16
22 30 26 28 32 49 16 58 -9 6 -24 -10 -91 -104 -74 -102 -76 -104 -83 -86 -4
9 -2 16 3 16 6 0 10 4 10 10 0 11 101 153 113 158 4 2 7 12 7 23 0 26 -27 24
-41 -3 -7 -13 -15 -25 -19 -28 -3 -3 -21 -26 -40 -52 -18 -27 -39 -48 -47 -48
-7 0 -12 3 -12 8 1 4 0 9 -1 12 -1 3 -3 12 -5 20 -1 8 -19 68 -39 134 -20 65
-36 125 -36 132 0 30 -19 10 -110 -116z"/>
<path d="M925 1689 c-5 -5 -25 -22 -44 -38 -39 -32 -38 -35 29 -81 19 -13 38
-29 42 -35 4 -5 8 -6 8 -2 0 5 6 2 13 -5 8 -7 26 -22 41 -33 16 -11 38 -27 49
-36 l21 -16 -25 -21 c-13 -11 -35 -30 -49 -42 -14 -12 -40 -34 -59 -48 -19
-15 -43 -37 -54 -49 -11 -12 -23 -21 -26 -20 -3 2 -24 -15 -46 -37 l-40 -39
70 6 c39 3 80 8 92 11 13 2 25 0 29 -5 4 -6 19 1 36 18 41 37 208 260 208 276
0 12 -34 47 -45 47 -3 0 -24 15 -48 33 -24 17 -56 41 -71 52 -16 11 -34 26
-41 33 -8 6 -16 12 -20 12 -4 0 -13 7 -21 15 -17 17 -34 19 -49 4z"/>
<path d="M1386 1682 c-5 -5 32 -135 106 -370 11 -34 21 -68 22 -75 1 -7 4 -16
8 -22 3 -5 16 -44 28 -85 23 -81 101 -323 104 -327 2 -2 26 27 56 63 53 66 53
67 66 43 7 -13 14 -33 14 -44 0 -11 6 -30 13 -43 l13 -23 25 32 c13 18 29 37
35 43 6 6 15 18 20 27 9 17 76 98 107 130 9 11 17 21 17 24 0 3 8 13 18 23 9
10 28 33 42 51 14 18 30 38 35 44 6 7 37 46 70 87 33 41 68 84 77 95 10 11 41
49 69 85 68 86 107 134 130 161 25 29 35 69 20 78 -6 4 -31 7 -55 6 -52 -1
-34 17 -226 -224 -74 -93 -140 -172 -146 -174 -7 -3 -10 4 -8 19 1 13 -1 24
-5 24 -4 0 -8 6 -9 13 0 6 -8 37 -17 67 -9 30 -18 62 -20 70 -2 8 -16 57 -31
107 -27 90 -28 92 -46 73 -10 -10 -18 -22 -18 -26 0 -3 -20 -33 -45 -65 -25
-33 -45 -62 -45 -65 0 -4 -11 -17 -24 -29 -23 -22 -24 -24 -7 -39 16 -14 18
-13 33 12 9 15 28 41 43 57 14 17 33 42 41 58 8 15 18 27 23 27 7 0 45 -116
56 -170 2 -8 8 -27 14 -42 6 -16 8 -28 5 -28 -4 0 -2 -6 4 -12 5 -7 13 -28 17
-46 3 -18 11 -30 16 -26 14 8 11 -6 -5 -21 -11 -11 -16 -7 -34 26 -13 23 -17
41 -11 45 7 4 7 10 0 18 -5 6 -12 25 -15 41 -2 17 -5 31 -6 33 -2 1 -3 5 -4
10 -2 4 -9 27 -16 52 -7 25 -14 48 -14 52 -2 17 -17 20 -29 6 -27 -36 -83
-102 -99 -120 -10 -10 -16 -18 -13 -18 5 0 -26 -38 -53 -66 -7 -8 -9 -14 -4
-14 4 0 -10 -19 -32 -43 -37 -38 -42 -41 -49 -24 -4 10 -5 23 -2 28 3 4 1 16
-4 26 -5 10 -20 48 -32 86 -13 37 -27 67 -32 67 -5 0 -7 6 -4 14 6 16 -7 78
-24 111 -9 19 -16 45 -18 70 -3 30 -22 40 -81 40 -33 1 -62 -1 -64 -3z m480
-429 c4 -16 10 -32 15 -38 4 -5 7 -12 7 -15 0 -3 5 -24 12 -48 9 -37 9 -48 -5
-68 -9 -14 -20 -22 -24 -19 -7 4 -33 84 -35 109 -1 12 -26 20 -26 8 0 -5 -10
-20 -22 -34 -13 -13 -35 -40 -50 -58 -16 -19 -28 -32 -29 -29 0 2 -2 13 -4 23
-2 10 2 24 8 31 17 18 38 44 72 90 65 87 71 90 81 48z"/>
<path d="M2445 1529 c-119 -153 -178 -224 -186 -227 -5 -2 -9 -10 -9 -17 0 -8
-8 -20 -17 -27 -10 -7 -38 -40 -63 -73 -42 -56 -104 -134 -142 -180 -10 -11
-54 -67 -100 -125 -45 -58 -87 -111 -94 -117 -9 -10 -8 -26 7 -75 23 -72 27
-79 40 -56 13 24 332 422 341 426 5 2 8 10 8 17 0 7 4 15 9 17 5 2 38 40 74
85 36 46 71 89 79 98 7 8 18 20 23 27 81 103 77 94 78 173 3 109 -1 114 -48
54z"/>
<path d="M1250 1282 c-25 -8 -29 -24 -14 -53 22 -44 18 -47 -45 -43 l-59 4 18
-49 c41 -113 57 -134 80 -106 9 11 8 22 -4 46 -21 43 -20 52 5 44 16 -6 20 -4
13 6 -6 11 -5 12 7 3 8 -6 25 -10 39 -10 14 1 28 -3 32 -9 5 -6 8 -4 8 4 0 8
-8 20 -17 28 -10 8 -12 12 -5 8 16 -8 15 0 -4 43 -9 21 -21 49 -28 63 -7 16
-17 24 -26 21z"/>
<path d="M527 1114 c-55 -59 -66 -75 -51 -73 4 0 11 -5 15 -13 6 -10 26 5 74
56 36 38 64 70 63 71 -32 26 -44 21 -101 -41z"/>
<path d="M601 1074 c-45 -69 -57 -105 -30 -89 5 4 9 2 9 -3 0 -16 70 -25 86
-11 20 17 17 26 -11 33 -32 8 -31 15 6 76 17 28 29 54 25 57 -3 4 -6 3 -6 -2
0 -4 -7 -2 -15 5 -12 10 -22 -1 -64 -66z m49 22 c0 -2 -8 -10 -17 -17 -16 -13
-17 -12 -4 4 13 16 21 21 21 13z"/>
<path d="M1012 1129 c-59 -35 -78 -106 -41 -153 25 -32 55 -33 100 -3 58 39
75 100 40 146 -23 30 -61 34 -99 10z m69 -16 c12 -16 12 -17 -2 -6 -9 7 -20 9
-24 5 -5 -4 -5 -1 -1 6 9 16 11 15 27 -5z m-12 -34 c16 -18 18 -25 8 -40 -7
-11 -15 -19 -19 -19 -5 0 -8 -8 -9 -17 0 -11 -3 -13 -6 -5 -2 6 -9 10 -13 7
-5 -3 -16 5 -24 17 -11 16 -13 25 -4 35 6 7 7 13 2 13 -11 1 27 30 38 30 4 0
16 -10 27 -21z"/>
<path d="M773 1092 c-3 -9 -8 -21 -11 -26 -3 -5 0 -6 6 -2 17 10 55 -13 44
-27 -8 -11 -32 -86 -32 -101 0 -10 50 -7 51 4 2 16 4 23 18 65 18 52 30 68 45
56 15 -12 30 -2 34 23 3 14 -1 17 -12 13 -9 -4 -16 -3 -16 1 0 4 -27 8 -60 9
-50 2 -62 -1 -67 -15z"/>
</g>
</svg>
